<svg width="128" height="128" viewBox="0 0 128 128" xmlns="http://www.w3.org/2000/svg">
  <defs>
    <linearGradient id="grad10" x1="0%" y1="0%" x2="100%" y2="100%">
      <stop offset="0%" style="stop-color:#0969da;stop-opacity:1" />
      <stop offset="100%" style="stop-color:#8250df;stop-opacity:1" />
    </linearGradient>
  </defs>
  
  <!-- Sharp angular background shape -->
  <path d="M 64 10 L 118 40 L 118 88 L 64 118 L 10 88 L 10 40 Z" fill="url(#grad10)"/>
  
  <!-- Bold MD monogram -->
  <path d="M 38 48 L 38 80 L 44 80 L 44 60 L 52 68 L 60 60 L 60 80 L 66 80 L 66 48 Z" fill="white"/>
  
  <path d="M 72 48 L 72 80 L 78 80 L 78 60 Q 78 48 90 48 L 90 54 Q 84 54 84 60 L 84 80 L 90 80 L 90 48 Z" fill="white"/>
  
  <!-- Accent line -->
  <line x1="40" y1="86" x2="88" y2="86" stroke="white" stroke-width="2" stroke-linecap="round" opacity="0.8"/>
</svg>

