<svg width="128" height="128" viewBox="0 0 128 128" xmlns="http://www.w3.org/2000/svg">
  <defs>
    <linearGradient id="grad8a" x1="0%" y1="0%" x2="100%" y2="100%">
      <stop offset="0%" style="stop-color:#0969da;stop-opacity:1" />
      <stop offset="100%" style="stop-color:#8250df;stop-opacity:1" />
    </linearGradient>
    <linearGradient id="grad8b" x1="0%" y1="100%" x2="100%" y2="0%">
      <stop offset="0%" style="stop-color:#8250df;stop-opacity:0.7" />
      <stop offset="100%" style="stop-color:#0969da;stop-opacity:0.7" />
    </linearGradient>
  </defs>
  
  <!-- Abstract curved shape suggesting transformation -->
  <path d="M 20 35 Q 35 25 50 35 T 80 35 Q 95 35 105 50 T 105 85 Q 105 100 90 108 L 38 108 Q 23 108 23 93 T 23 65 Q 23 50 35 42 T 60 42" 
        fill="url(#grad8a)" opacity="0.3"/>
  
  <!-- Bold M letterform -->
  <path d="M 35 50 L 35 85 L 42 85 L 42 62 L 52 72 L 62 62 L 62 85 L 69 85 L 69 50 L 62 50 L 52 60 L 42 50 Z" 
        fill="url(#grad8a)"/>
  
  <!-- Flow lines showing movement/viewing -->
  <path d="M 75 55 Q 85 60 90 70" stroke="url(#grad8a)" stroke-width="3" fill="none" stroke-linecap="round" opacity="0.8"/>
  <path d="M 75 65 Q 82 68 87 75" stroke="url(#grad8a)" stroke-width="3" fill="none" stroke-linecap="round" opacity="0.6"/>
  <path d="M 75 75 Q 80 77 84 82" stroke="url(#grad8a)" stroke-width="3" fill="none" stroke-linecap="round" opacity="0.4"/>
  
  <!-- Eye/dot accent -->
  <circle cx="90" cy="80" r="5" fill="url(#grad8a)"/>
</svg>

